<?xml version="1.0" standalone="no"?>
<!DOCTYPE svg PUBLIC "-//W3C//DTD SVG 20010904//EN"
 "http://www.w3.org/TR/2001/REC-SVG-20010904/DTD/svg10.dtd">
<svg version="1.0" xmlns="http://www.w3.org/2000/svg"
 width="500.000000pt" height="500.000000pt" viewBox="0 0 500.000000 500.000000"
 preserveAspectRatio="xMidYMid meet">

<g transform="translate(0.000000,500.000000) scale(0.100000,-0.100000)"
fill="#000000" stroke="none">
<path d="M2261 3800 c-73 -68 -136 -130 -141 -139 -4 -9 -71 -176 -148 -371
-241 -613 -479 -1184 -564 -1355 -22 -44 -63 -112 -91 -151 -44 -61 -62 -77
-129 -113 -43 -23 -78 -45 -78 -48 0 -3 80 -4 178 -1 170 5 181 6 284 41 125
42 285 121 228 113 -64 -10 -328 -19 -344 -13 -15 6 -13 12 12 49 46 68 155
268 247 454 l85 171 138 7 c75 3 188 12 250 18 l114 11 56 47 c87 73 168 121
282 169 58 24 106 45 108 46 4 4 -340 1169 -349 1179 -4 4 -66 -47 -138 -114z
m79 -760 c62 -206 115 -383 118 -392 4 -17 -14 -18 -282 -18 -157 0 -286 3
-286 6 0 3 47 117 103 252 57 136 130 313 162 395 32 81 62 144 65 140 4 -5
58 -177 120 -383z"/>
<path d="M3129 2745 c-195 -37 -506 -155 -630 -240 -245 -167 -399 -479 -399
-808 0 -445 306 -761 793 -818 150 -17 270 6 443 86 64 29 238 138 249 155 2
4 -34 -4 -82 -16 -300 -80 -560 -70 -763 31 -210 103 -330 252 -387 483 -27
106 -24 360 5 477 41 162 126 302 237 388 64 50 194 112 276 132 232 56 599
-3 599 -97 0 -10 2 -18 5 -18 22 0 114 59 162 105 l58 55 -32 29 c-44 41 -145
62 -318 67 -94 2 -165 -1 -216 -11z"/>
<path d="M2736 2457 c-70 -38 -181 -139 -174 -159 4 -10 138 -455 184 -610 3
-11 -7 -25 -33 -42 l-38 -26 149 0 c184 0 225 10 416 101 l145 69 -114 0
c-138 0 -238 15 -250 39 -4 9 -50 161 -102 338 -70 239 -98 323 -109 323 -8 0
-42 -15 -74 -33z"/>
</g>
</svg>
